<svg xmlns="http://www.w3.org/2000/svg" width="19" height="19" viewBox="0 0 22.12 22.134">
  <path id="União_49" data-name="União 49" d="M.316,8.473A11,11,0,0,1,10.521.016a10.434,10.434,0,0,1,2.9.242,11.915,11.915,0,0,1-.272,1.481,4.761,4.761,0,0,1-.536-.072A9.274,9.274,0,0,0,5.905,3.083,9.539,9.539,0,0,0,7.611,19.956a9.961,9.961,0,0,0,6.406.173,9.678,9.678,0,0,0,5.924-5.549c.079-.194.157-.318.189-.309s.356.13.714.273l.655.259-.086.226c-.05.124-.134.331-.185.468a11.442,11.442,0,0,1-3.258,4.221c-.13.1-.244.2-.257.213A12.226,12.226,0,0,1,14.777,21.5a11.373,11.373,0,0,1-3.725.637A11.063,11.063,0,0,1,.316,8.473ZM5.769,16.74A7.873,7.873,0,1,1,11.254,19a7.679,7.679,0,0,1-5.485-2.26ZM11.04,6.664c-.4.185-.393.124-.393,2.7v2.286l.538.588c.8.876,3.06,3.087,3.2,3.127a.661.661,0,0,0,.78-.786c-.031-.079-.765-.859-1.634-1.729l-1.572-1.584-.019-2.1c-.016-2.279-.016-2.264-.314-2.457a.559.559,0,0,0-.314-.106.629.629,0,0,0-.267.068Zm9.46,5.973a2.087,2.087,0,0,1,.031-.427c.028-.226.05-.758.05-1.179,0-.587.016-.777.059-.78s.328-.031.659-.061.647-.066.7-.068a6.72,6.72,0,0,1-.031,2.751h-.014A14.556,14.556,0,0,1,20.5,12.64Zm-.452-4.754c0-.01-.052-.13-.1-.272a10.977,10.977,0,0,0-.73-1.493c-.146-.244-.2-.378-.171-.409s.307-.218.619-.432.578-.388.582-.393a12.7,12.7,0,0,1,1.162,2.225l.1.262-.124.05c-.266.1-1.294.457-1.329.457Zm-2.87-4.121a11.1,11.1,0,0,0-1.352-.943l-.43-.254.276-.516c.149-.285.307-.585.349-.669.1-.185.062-.193.508.064,1.089.625,1.915,1.278,1.8,1.423-.195.248-.912,1.046-.938,1.046a1.085,1.085,0,0,1-.211-.152Z" transform="translate(-0.006 0)" fill="#656453"/>
</svg>
