<svg xmlns="http://www.w3.org/2000/svg" width="25" height="25" viewBox="0 0 30.252 30.251">
  <path id="Subtraction_46" data-name="Subtraction 46" d="M-13125.376,234.749a15.027,15.027,0,0,1-10.7-4.429,15.029,15.029,0,0,1-4.429-10.694,15.034,15.034,0,0,1,4.429-10.7,15.024,15.024,0,0,1,10.7-4.431,15.031,15.031,0,0,1,10.7,4.431,15.027,15.027,0,0,1,4.431,10.7,15.022,15.022,0,0,1-4.431,10.694A15.033,15.033,0,0,1-13125.376,234.749Zm.967-19.157c-.031.016-1.9,1.874-3.614,3.591-2.241,2.245-3.584,3.6-3.592,3.618s-.155.807-.336,1.695a11.3,11.3,0,0,0-.283,1.754c0,.291.122.335.315.373h.011c.213,0,3.086-.541,3.416-.643.081-.026,1.259-1.176,3.707-3.621l3.581-3.581-1.593-1.6C-13123.582,216.4-13124.387,215.6-13124.409,215.592Zm3.755-2.822a2.243,2.243,0,0,0-.7.111c-.462.16-.662.309-1.425,1.062l-.731.729,1.6,1.6,1.605,1.6.742-.755c.972-.984,1.142-1.3,1.138-2.091a2.229,2.229,0,0,0-.913-1.83A2.219,2.219,0,0,0-13120.654,212.77Z" transform="translate(13140.5 -204.498)" fill="#22b6b6"/>
</svg>
