<svg xmlns="http://www.w3.org/2000/svg" width="40" height="40" viewBox="0 0 40 40">
  <g id="Group_10843" data-name="Group 10843" transform="translate(-280.105 -183.567)">
    <rect id="brunette-woman-getting-her-hair-cut_23-2148108792" width="40" height="40" rx="20" transform="translate(280.105 183.567)" fill="#d2af40"/>
    <path id="path0" d="M154.434.469c-.51.175-.738.344-1.582,1.18l-.814.806,1.782,1.781L155.6,6.016l.825-.837c1.079-1.095,1.266-1.439,1.265-2.324A2.48,2.48,0,0,0,154.434.469m-7.411,7c-2.194,2.2-3.989,4-3.989,4.015s-.167.862-.373,1.884c-.428,2.133-.426,2.27.037,2.363.114.023,3.452-.605,3.8-.716.094-.03,1.455-1.362,4.118-4.022L154.6,7.017l-1.768-1.772c-.972-.973-1.778-1.768-1.792-1.768s-1.819,1.8-4.014,3.991" transform="translate(149.526 195.875)" fill="#fff" fill-rule="evenodd"/>
  </g>
</svg>
