<svg xmlns="http://www.w3.org/2000/svg" width="36" height="36" viewBox="0 0 36 36">
  <path id="Exclusion_116" data-name="Exclusion 116" d="M2387-6888a17.884,17.884,0,0,1-12.729-5.271A17.88,17.88,0,0,1,2369-6906a17.883,17.883,0,0,1,5.272-12.729A17.885,17.885,0,0,1,2387-6924a17.882,17.882,0,0,1,12.728,5.272A17.884,17.884,0,0,1,2405-6906a17.881,17.881,0,0,1-5.271,12.728A17.882,17.882,0,0,1,2387-6888Zm.412-21.792c-.03.017-1.715,1.692-3.613,3.592-2.408,2.415-3.582,3.6-3.59,3.616s-.154.789-.335,1.7a11.417,11.417,0,0,0-.284,1.752c0,.291.123.335.318.375h.009c.2,0,3.107-.547,3.413-.644.084-.027,1.262-1.178,3.707-3.621l3.581-3.58-1.592-1.6C2388.249-6908.978,2387.435-6909.784,2387.412-6909.793Zm3.757-2.82a2.232,2.232,0,0,0-.7.112c-.46.157-.66.306-1.423,1.062l-.733.725,1.6,1.6,1.6,1.6.742-.754c.97-.984,1.14-1.3,1.138-2.092a2.24,2.24,0,0,0-.912-1.828A2.222,2.222,0,0,0,2391.169-6912.613Z" transform="translate(-2369 6924)" fill="#fff"/>
</svg>
