<svg xmlns="http://www.w3.org/2000/svg" width="33.284" height="33.28" viewBox="0 0 33.284 33.28">
  <path id="Union_68" data-name="Union 68" d="M0,16.638A16.642,16.642,0,1,1,16.643,33.28,16.641,16.641,0,0,1,0,16.638Zm5.225.133a11.418,11.418,0,1,0,22.837,0,.975.975,0,0,0-.974-.977H6.2A.977.977,0,0,0,5.225,16.771ZM26.4,12.108a.975.975,0,1,0,1.378-1.378,5.394,5.394,0,0,0-7.643,0,.975.975,0,0,0,1.378,1.378,3.455,3.455,0,0,1,4.887,0Zm-14.621,0a.975.975,0,0,0,1.379-1.378,5.4,5.4,0,0,0-7.644,0h0A.976.976,0,0,0,6.89,12.108a3.454,3.454,0,0,1,4.886,0ZM7.224,17.743H26.062a9.469,9.469,0,0,1-18.838,0Z" fill="#252849" opacity="0.2"/>
</svg>
