<svg xmlns="http://www.w3.org/2000/svg" width="30" height="30" viewBox="0 0 39.151 39.151">
  <g id="Group_10704" data-name="Group 10704" transform="translate(-297.849 -335.871)">
    <rect id="Retângulo_46" data-name="Retângulo 46" width="23.142" height="26.297" transform="translate(306.652 343.077)" fill="#fff"/>
    <path id="plus" d="M19.576,0A19.576,19.576,0,1,0,39.151,19.576,19.576,19.576,0,0,0,19.576,0Zm9.411,21.081H21.081v8.281a1.506,1.506,0,0,1-3.012,0V21.081h-7.9a1.506,1.506,0,0,1,0-3.012H18.07V10.541a1.506,1.506,0,1,1,3.012,0V18.07h7.906a1.506,1.506,0,1,1,0,3.012Z" transform="translate(297.849 335.871)" fill="#d2af40"/>
  </g>
</svg>
