<svg id="search-1" xmlns="http://www.w3.org/2000/svg" width="18" height="18" viewBox="0 0 22.933 22.929">
  <path id="Caminho_14466" data-name="Caminho 14466" d="M21.552,31.1A9.552,9.552,0,1,1,31.1,21.551,9.552,9.552,0,0,1,21.552,31.1Zm0-16.238a6.686,6.686,0,1,0,6.686,6.686,6.686,6.686,0,0,0-6.686-6.686Z" transform="translate(-11.996 -11.996)" fill="#252849"/>
  <path id="Caminho_14467" data-name="Caminho 14467" d="M26.891,28.325a1.422,1.422,0,0,1-1.013-.42L19.67,21.7a1.436,1.436,0,0,1,2.03-2.031l6.209,6.209a1.434,1.434,0,0,1-1.014,2.447Z" transform="translate(-5.395 -5.396)" fill="#252849"/>
</svg>
