<svg xmlns="http://www.w3.org/2000/svg" width="20.618" height="19.788" viewBox="0 0 20.618 19.788">
  <g id="star" transform="translate(0)">
    <path id="star-2" data-name="star" d="M20.04,19.6a1.9,1.9,0,0,0-1.054-3.246l-4.457-.648a.7.7,0,0,1-.523-.38l-1.993-4.033a1.9,1.9,0,0,0-3.411,0L6.609,15.328a.7.7,0,0,1-.523.38l-4.457.645A1.9,1.9,0,0,0,.576,19.6L3.8,22.743a.7.7,0,0,1,.2.614L3.238,27.8A1.9,1.9,0,0,0,6,29.8l3.986-2.1a.7.7,0,0,1,.646,0l3.986,2.1a1.9,1.9,0,0,0,2.76-2l-.761-4.439a.7.7,0,0,1,.2-.614Z" transform="translate(0.001 -10.232)" fill="#d2af40"/>
  </g>
</svg>
