<svg xmlns="http://www.w3.org/2000/svg" width="37.061" height="43.72" viewBox="0 0 37.061 43.72">
  <path id="Subtraction_45" data-name="Subtraction 45" d="M7.094,37.664a7.473,7.473,0,0,1-2.237-.338,7,7,0,0,1-2.028-1.01A6.771,6.771,0,0,1,.205,32.309C.063,31.719,0,25.531,0,20.034S.063,8.326.205,7.685A9.9,9.9,0,0,1,1.242,4.923a9.586,9.586,0,0,1,1.75-2.252A9.9,9.9,0,0,1,5.358,1.018,10.963,10.963,0,0,1,8.243.055,5.213,5.213,0,0,1,9.143,0a15.024,15.024,0,0,1,3.184.316,10.111,10.111,0,0,1,4.542,2.733,9.689,9.689,0,0,1,2.4,4.637c.14.626.2,3.9.2,6.869a53.648,53.648,0,0,1-.2,6.319,1.728,1.728,0,0,1-1.5.824,1.351,1.351,0,0,1-.76-.218c-.049-.033-.093-.059-.135-.086l-.014-.009c-.611-.386-.611-.386-.65-5.591,0-.4-.009-.835-.012-1.3-.051-6.146-.056-6.209-.284-6.842A6.533,6.533,0,0,0,9.658,3.206,6.232,6.232,0,0,0,3.421,8.261c-.1.471-.156,6.322-.17,11.562s.019,11.1.114,11.592a3.74,3.74,0,0,0,3.773,3.077,3.786,3.786,0,0,0,3.482-2.2l.261-.538.028-8.459.026-8.46-.256-.3a1.031,1.031,0,0,0-.783-.38,1.141,1.141,0,0,0-.473.111.809.809,0,0,1-.079.037c-.552.247-.552.247-.6,5.516l0,.74c-.049,5.325-.063,5.714-.233,5.991a1.587,1.587,0,0,1-1.366.742,1.537,1.537,0,0,1-1.342-.74l-.247-.413V20.351c0-6.865,0-6.865,1.247-8.106a4.277,4.277,0,0,1,3.051-1.269,4.481,4.481,0,0,1,2.689.9,4.153,4.153,0,0,1,1.573,2.488c.077.36.1,3.166.084,9.1l-.028,8.587-.273.788a7.267,7.267,0,0,1-1.135,2.12,6.762,6.762,0,0,1-1.622,1.507A7.283,7.283,0,0,1,7.094,37.664Z" transform="translate(19.515 0.683) rotate(30)" fill="#252849" stroke="rgba(0,0,0,0)" stroke-miterlimit="10" stroke-width="1"/>
</svg>
