<svg xmlns="http://www.w3.org/2000/svg" width="20" height="14" viewBox="0 0 26.561 16.021">
  <path id="União_43" data-name="União 43" d="M2.8,15.021a2.8,2.8,0,0,1-2.8-2.8V2.8A2.805,2.805,0,0,1,2.8,0H14.458a2.787,2.787,0,0,1,2.8,2.8v9.422a2.8,2.8,0,0,1-2.8,2.8Zm20.247-1.763-4.391-2.516V4.253l4.363-2.52a1.422,1.422,0,0,1,.476-.2,1.683,1.683,0,0,1,2.069,1.622V11.8a1.713,1.713,0,0,1-.223.839,1.683,1.683,0,0,1-1.45.847,1.662,1.662,0,0,1-.844-.231Z" transform="translate(0.5 0.5)" fill="#656453" stroke="rgba(0,0,0,0)" stroke-miterlimit="10" stroke-width="1"/>
</svg>
